<svg width="355" height="172" viewBox="0 0 355 172" fill="none" xmlns="http://www.w3.org/2000/svg">
<g filter="url(#filter0_d_9447_49512)">
<path fill-rule="evenodd" clip-rule="evenodd" d="M10 24C10 15.1634 17.1634 8 26 8H329C337.837 8 345 15.1634 345 24V106C340.582 106 337 109.582 337 114C337 118.418 340.582 122 345 122V144C345 152.837 337.837 160 329 160H26C17.1634 160 10 152.837 10 144V121.993C14.4491 121.818 18 118.307 18 114C18 109.693 14.4491 106.182 10 106.007V24Z" fill="white"/>
</g>
<defs>
<filter id="filter0_d_9447_49512" x="0" y="0" width="355" height="172" filterUnits="userSpaceOnUse" color-interpolation-filters="sRGB">
<feFlood flood-opacity="0" result="BackgroundImageFix"/>
<feColorMatrix in="SourceAlpha" type="matrix" values="0 0 0 0 0 0 0 0 0 0 0 0 0 0 0 0 0 0 127 0" result="hardAlpha"/>
<feOffset dy="2"/>
<feGaussianBlur stdDeviation="5"/>
<feComposite in2="hardAlpha" operator="out"/>
<feColorMatrix type="matrix" values="0 0 0 0 0.2 0 0 0 0 0.186583 0 0 0 0 0.170833 0 0 0 0.1 0"/>
<feBlend mode="normal" in2="BackgroundImageFix" result="effect1_dropShadow_9447_49512"/>
<feBlend mode="normal" in="SourceGraphic" in2="effect1_dropShadow_9447_49512" result="shape"/>
</filter>
</defs>
</svg>
